<svg width="14" height="15" viewBox="0 0 14 15" fill="none" xmlns="http://www.w3.org/2000/svg">
<path d="M10.5002 12.3256H3.85019V5.32555L8.05019 1.12555L8.51686 1.44638C8.68214 1.56305 8.80853 1.71131 8.89603 1.89117C8.98353 2.07104 9.00783 2.25819 8.96894 2.45263L8.95436 2.52555L8.40019 5.32555H12.2502C12.5419 5.32555 12.7898 5.42763 12.9939 5.6318C13.1981 5.83597 13.3002 6.08388 13.3002 6.37555V7.2068C13.3002 7.28458 13.2929 7.35506 13.2783 7.41826C13.2637 7.48145 13.2419 7.54708 13.2127 7.61513L11.4763 11.6868C11.3894 11.8793 11.2585 12.0339 11.0835 12.1505C10.9085 12.2672 10.7141 12.3256 10.5002 12.3256ZM4.90019 11.2755H10.5002L12.2502 7.2068V6.37555H7.11686L7.83144 2.8318L4.90019 5.76305V11.2755ZM3.85019 5.32555V6.37555H1.7502V11.2755H3.85019V12.3256H0.700195V5.32555H3.85019Z" fill="#9CA3AF"/>
</svg>
