<svg width="20" height="21" viewBox="0 0 20 21" fill="none" xmlns="http://www.w3.org/2000/svg">
<mask id="mask0_844_1269" style="mask-type:alpha" maskUnits="userSpaceOnUse" x="0" y="0" width="20" height="21">
<circle cx="9.96721" cy="10.7172" r="9.96721" fill="#D9D9D9"/>
</mask>
<g mask="url(#mask0_844_1269)">
<path d="M15.4316 18.9461C15.3858 18.9788 15.3335 19.0114 15.2878 19.0441C15.2355 19.0768 15.1897 19.1095 15.1374 19.1356C15.0917 19.1618 15.0525 19.1879 15.0067 19.214C15.0002 19.2206 14.9936 19.2206 14.9871 19.2271C14.8368 19.3186 14.6799 19.4036 14.5231 19.482C14.4773 19.5082 14.425 19.5343 14.3793 19.5539C14.3793 19.5539 14.3727 19.5605 14.3662 19.5605C14.3139 19.5866 14.2616 19.6127 14.2093 19.6389C14.1048 19.6912 13.9936 19.7369 13.8891 19.7827C13.8368 19.8088 13.778 19.8284 13.7257 19.848C13.6734 19.8676 13.6146 19.8938 13.5623 19.9134C13.51 19.933 13.4512 19.9591 13.3989 19.9788C13.3989 19.9788 13.3989 19.9788 13.3923 19.9788C13.34 19.9984 13.2812 20.018 13.2289 20.0376C13.1113 20.0768 12.9871 20.116 12.8695 20.1552C12.8302 20.1683 12.7845 20.1814 12.7453 20.1944C12.6211 20.2337 12.4969 20.2663 12.3727 20.2925C12.327 20.3056 12.2812 20.3121 12.2289 20.3252C12.1113 20.3513 11.9871 20.3774 11.8695 20.4036C11.8433 20.4101 11.8237 20.4101 11.7976 20.4167C11.7583 20.4232 11.7126 20.4297 11.6734 20.4363C11.6146 20.4428 11.5623 20.4559 11.5034 20.4624C11.4773 20.469 11.4512 20.469 11.425 20.4755C11.3923 20.482 11.3531 20.4886 11.3139 20.4886C11.2093 20.5016 11.0982 20.5147 10.9936 20.5278C10.961 20.5343 10.9217 20.5343 10.8891 20.5408H10.8825C10.8368 20.5474 10.791 20.5474 10.7453 20.5539C10.6995 20.5605 10.6538 20.5605 10.608 20.5605C10.5819 20.5605 10.5492 20.567 10.5231 20.567C10.4708 20.567 10.425 20.5735 10.3793 20.5735C10.3139 20.5735 10.2551 20.5801 10.1897 20.5801C10.1244 20.5801 10.0655 20.5801 10.0002 20.5801C9.95443 20.5801 9.90868 20.5801 9.86292 20.5801C7.10475 20.5408 4.62763 19.3709 2.85639 17.5147C2.85639 17.5147 2.85639 17.5082 2.84985 17.5082C2.65378 17.3317 2.82371 16.3905 3.61456 15.7957C4.60802 15.0441 6.98711 14.5735 6.98711 14.5735C6.98711 14.5735 7.90868 14.4232 11.327 15.1356C13.327 15.5539 14.8499 16.1618 15.6995 17.8088C15.876 18.1487 16.0525 18.6716 15.4316 18.9461Z" fill="white"/>
<path d="M11.3464 15.0637C12.6013 15.3186 13.9412 15.5931 14.9739 16.4232C15.3203 16.7042 15.549 17.116 15.7386 17.5147C15.8301 17.7108 15.9216 17.9134 15.9935 18.1291C16.0327 18.2729 16.0915 18.4363 16.0588 18.6062C16.0523 18.652 16.0131 18.7108 15.9804 18.7435C15.8301 18.8938 15.6667 18.9853 15.5033 19.1029C14.5425 19.7696 13.4379 20.2402 12.2941 20.4886C9.74512 21.0441 6.98695 20.6127 4.74512 19.2729C4.00003 18.8219 3.31375 18.2729 2.72552 17.6258C2.66016 17.5474 2.66016 17.4167 2.66016 17.3317C2.66669 17.1356 2.71898 16.9461 2.78434 16.7696C2.9412 16.3644 3.14382 15.9592 3.49022 15.6781C3.73859 15.5082 4.00656 15.3644 4.28107 15.2467C5.14382 14.8807 6.05231 14.6258 6.98695 14.5212C7.06538 14.5147 7.07846 14.6258 7.00003 14.6389C6.1046 14.8219 5.21571 15.0964 4.38565 15.469C4.08499 15.6193 3.76473 15.75 3.5229 15.9853C3.29414 16.2337 3.13074 16.5409 3.00003 16.8546C2.91506 17.0441 2.85623 17.3448 2.88238 17.4951C3.29414 17.9853 3.7778 18.4167 4.30068 18.7892C7.16342 20.7892 11.5098 20.9199 14.5556 19.2533C14.8301 19.1029 15.0981 18.933 15.353 18.7565C15.4771 18.6716 15.6079 18.5997 15.7059 18.5016C15.7124 18.4951 15.7059 18.5016 15.7059 18.5082C15.7059 18.5147 15.6994 18.5212 15.6994 18.5212C15.7059 18.4428 15.6798 18.3382 15.6471 18.2337C15.5294 17.8546 15.3399 17.4559 15.1373 17.1095C14.817 16.5931 14.2745 16.2663 13.7255 16.0049C13.3464 15.8284 12.9477 15.6912 12.5425 15.5605C12.1373 15.4297 11.7255 15.3186 11.3138 15.2206C11.2092 15.1944 11.2419 15.0441 11.3464 15.0637Z" fill="black"/>
<path d="M5.82422 14.5147C5.82422 14.5147 6.77847 14.1356 6.95494 14.1226L6.96801 14.2729C6.96801 14.2729 6.20984 14.5997 6.16409 14.652C6.12487 14.6977 5.82422 14.5147 5.82422 14.5147Z" fill="#7E5D6D"/>
<path d="M17.6017 22.9984H1.07227C1.07227 22.9984 1.1703 19.9657 2.16377 17.8023C2.9154 16.1683 4.71932 15.0899 6.03305 14.6193C6.4056 14.4886 6.69318 14.3448 6.96115 14.2729C6.96115 14.3056 6.98076 14.5474 6.98076 14.5735C6.98076 14.5735 7.74547 13.4363 10.0788 13.5605C11.1572 13.6193 12.02 13.9134 12.02 13.9134C12.1442 13.8873 11.9677 14.5278 12.0788 14.4951C12.118 14.482 12.1964 14.8742 12.2291 14.8611C13.0723 15.0833 14.1049 15.7108 15.6017 16.9657C17.301 18.3905 17.6017 22.9984 17.6017 22.9984Z" fill="black"/>
<path d="M14.419 16.3513C14.8413 16.3513 15.1837 16.0089 15.1837 15.5866C15.1837 15.1643 14.8413 14.8219 14.419 14.8219C13.9967 14.8219 13.6543 15.1643 13.6543 15.5866C13.6543 16.0089 13.9967 16.3513 14.419 16.3513Z" fill="#FFFF8D"/>
<path d="M4.30779 22.9984L4.01367 20.5735" stroke="#544D4D" stroke-width="3" stroke-miterlimit="10" stroke-linecap="round" stroke-linejoin="round"/>
<path d="M15.7255 19.75C15.7255 19.75 15.5294 20.2271 15.5883 20.7043C15.6471 21.1814 15.817 21.8807 15.5752 22.9984" stroke="#544D4D" stroke-width="3" stroke-miterlimit="10" stroke-linecap="round" stroke-linejoin="round"/>
<path d="M5.82391 14.5147C5.94809 14.4755 6.16378 14.5147 6.22914 14.6259C6.48404 15.0442 7.09842 16.2664 7.35332 18.6912C7.55594 20.5866 7.24875 23.9984 7.24875 23.9984L0.902344 23.6978C0.902344 23.6978 1.09189 20.4755 1.64744 18.3121C2.19646 16.2141 3.6213 15.2729 5.82391 14.5147Z" fill="white"/>
<path d="M5.77817 14.3775C5.99386 14.3186 6.2553 14.3709 6.37295 14.5736C6.72589 15.1683 6.94811 15.835 7.12458 16.5017C7.33373 17.3186 7.47098 18.1553 7.54288 18.9919C7.64746 20.6716 7.54942 22.3383 7.4187 24.018C7.41216 24.1095 7.33373 24.1749 7.24223 24.1683L0.895821 23.8677C0.804317 23.8677 0.732422 23.7892 0.732422 23.6912C0.797781 22.7369 0.895821 21.7958 1.02 20.8481C1.15726 19.9003 1.30105 18.9592 1.56902 18.0376C2.18994 15.9788 3.86314 15.0311 5.77817 14.3775ZM5.87621 14.6585C4.99386 14.9592 4.03308 15.1749 3.30105 15.7892C2.94811 16.0899 2.68667 16.4951 2.4383 16.8807C1.92196 17.6585 1.73896 18.5866 1.5821 19.5017C1.34027 20.8938 1.19647 22.3056 1.07883 23.7108C1.07883 23.7108 0.915428 23.5343 0.921964 23.5343L7.26837 23.835L7.0919 23.9853C7.14419 23.1553 7.19647 22.3252 7.22262 21.4951C7.30759 19.4428 7.19647 17.3383 6.45138 15.4102C6.35334 15.1683 6.24876 14.933 6.11151 14.7108C6.05922 14.6585 5.93504 14.6389 5.87621 14.6585Z" fill="black"/>
<path d="M12.3994 14.9134C12.3994 14.9134 14.419 18.7108 13.8308 23.7827H18.1903C18.1903 23.7827 18.1707 19.7565 17.1903 17.567C16.2099 15.384 12.7785 14.7435 12.7785 14.7435C12.7785 14.7435 12.5628 14.8546 12.3994 14.9134Z" fill="white"/>
<path d="M12.556 14.9722C12.5756 14.9526 12.5822 14.9134 12.5756 14.8873V14.8807C12.6083 14.9526 12.6475 15.0245 12.6802 15.0964C13.6214 17.1944 14.0789 19.5016 14.1051 21.7957C14.1116 22.0049 14.092 22.4493 14.0855 22.6585C14.0789 22.9984 14.0201 23.4624 14.0005 23.8023L13.8371 23.6127H18.1966L18.0266 23.7827C18.0266 23.299 18.0005 22.8088 17.9743 22.3252C17.8632 20.6846 17.6214 17.8415 16.4776 16.6258C15.5887 15.6716 14.0201 15.0964 12.7521 14.9069L12.8567 14.8938C12.7652 14.9395 12.6606 14.9853 12.5691 15.0245L12.5168 15.0441L12.5038 15.0507C12.5234 15.0441 12.5495 15.0049 12.556 14.9722ZM12.2423 14.8546C12.2685 14.8088 12.3273 14.7565 12.3861 14.7369L12.4319 14.7173C12.5234 14.6781 12.6214 14.6323 12.7129 14.5866C12.7456 14.5735 12.7783 14.567 12.8109 14.5801C13.0593 14.652 13.2946 14.7239 13.5299 14.8023C13.7652 14.8873 13.9939 14.9722 14.2227 15.0703C14.9024 15.3644 15.5691 15.7108 16.1377 16.1814C16.5953 16.5539 17.0528 16.9657 17.3077 17.5147C17.7717 18.567 17.9874 19.7042 18.1443 20.835C18.2815 21.8154 18.3469 22.7957 18.36 23.7827C18.36 23.8742 18.2881 23.9526 18.19 23.9526H13.8305C13.7325 23.9526 13.6541 23.8611 13.6672 23.7631C13.6933 23.4232 13.7456 22.9722 13.7521 22.6389C13.7587 22.4363 13.7783 21.9918 13.7717 21.7957C13.7587 19.8284 13.3926 17.8546 12.6998 16.0114C12.5756 15.6846 12.4384 15.3578 12.2881 15.0507C12.2488 14.9984 12.2292 14.9134 12.2423 14.8546Z" fill="black"/>
<path d="M12.399 14.9134L12.2422 14.8676C12.2422 14.8676 12.4709 14.7565 12.569 14.6912L12.6278 14.6585C12.6278 14.6585 12.9415 14.8023 13.0526 14.8546C13.1638 14.9068 12.667 15.1487 12.667 15.1487C12.667 15.1487 12.4187 14.9199 12.399 14.9134Z" fill="#7E5D6D"/>
<path d="M5.28065 16.7565C5.28065 16.7565 4.37869 17.3905 4.46365 18.0637C4.54862 18.7369 7.3264 22.9526 7.3264 22.9526C7.3264 22.9526 7.6532 20.665 7.28065 18.0768C7.28065 18.0768 7.01267 17.7173 6.52248 17.3579C6.19568 17.1291 5.78392 16.8938 5.28065 16.7565Z" fill="white"/>
<path d="M5.31377 16.9265C5.33338 16.9265 5.35299 16.9134 5.37259 16.9003L5.35952 16.9069C4.98697 17.1422 4.52946 17.567 4.56214 18.0441C4.60135 18.2467 4.71246 18.4493 4.8105 18.6389C5.01965 19.0376 5.24841 19.4297 5.4837 19.8219C5.95429 20.5997 6.45102 21.3644 6.96083 22.116L7.47717 22.8676L7.16998 22.933C7.22227 22.5409 7.25495 22.1356 7.27455 21.7304C7.33991 20.5212 7.29416 19.3056 7.12423 18.1095L7.15691 18.1879C6.91508 17.8873 6.61442 17.6258 6.3007 17.4101C6.00658 17.2141 5.69286 17.0572 5.35299 16.9526L5.33991 16.9461C5.32031 16.9395 5.32031 16.933 5.31377 16.9265ZM5.25495 16.5931C5.31377 16.5997 5.38567 16.6127 5.44449 16.6324C6.01312 16.8088 6.53599 17.1226 6.98044 17.5212C7.14384 17.665 7.28109 17.8088 7.42488 17.9853C7.44449 18.0049 7.45102 18.031 7.45756 18.0572C7.6275 19.2794 7.67325 20.5147 7.61442 21.75C7.59482 22.1618 7.56214 22.567 7.50985 22.9853C7.49678 23.1422 7.28109 23.1879 7.20266 23.0507C6.76475 22.3186 6.2288 21.4363 5.79743 20.7043C5.52292 20.2337 5.1373 19.5931 4.8824 19.1226C4.73861 18.8546 4.58828 18.5866 4.47717 18.299C4.43142 18.1944 4.40527 18.0637 4.40527 17.9395C4.45103 17.4167 4.83011 17.0114 5.17651 16.6454C5.18305 16.6193 5.22227 16.5997 5.25495 16.5931Z" fill="black"/>
<path d="M15.8371 18.0703C15.8632 17.652 14.8959 16.9722 14.8959 16.9722C14.5103 17.0833 14.2358 17.2598 14.0397 17.4494C13.6018 17.8611 13.543 18.3252 13.543 18.3252L13.5691 18.4428C14.0332 20.4624 13.8959 23.0899 13.8959 23.0899C13.8959 23.0899 15.8109 18.4886 15.8371 18.0703Z" fill="white"/>
<path d="M15.7583 18.0637C15.7256 17.6781 15.1178 17.2794 14.7975 17.1095L14.9413 17.1356C14.3531 17.299 13.8302 17.7369 13.706 18.3513L13.6995 18.286C13.791 18.6781 13.8694 19.0833 13.9151 19.482C14.072 20.6846 14.1047 21.8873 14.0589 23.0964C14.0589 23.1029 13.7387 23.0245 13.7387 23.0245C14.072 22.3252 14.5099 21.286 14.8171 20.5605C14.9936 20.1487 15.157 19.7304 15.3204 19.3121C15.4772 18.9003 15.6602 18.4886 15.7583 18.0637ZM15.8759 18.0703C15.8367 18.299 15.7517 18.5082 15.6798 18.7239C15.4576 19.3578 15.2027 19.9853 14.974 20.6193C14.7583 21.1945 14.3596 22.2598 14.157 22.8284L14.0459 23.1487C13.9805 23.3317 13.706 23.2729 13.7256 23.0768C13.7714 21.8938 13.7387 20.6977 13.5818 19.5212C13.5361 19.1291 13.4576 18.7435 13.3727 18.3644C13.3596 18.2925 13.3857 18.2206 13.4053 18.1552C13.5949 17.4886 14.1962 16.9918 14.8498 16.8154C14.9021 16.7958 14.9544 16.8088 14.9936 16.8415C15.1439 17.0114 15.3727 17.2337 15.5164 17.4101C15.6668 17.5931 15.8759 17.8023 15.8759 18.0703Z" fill="black"/>
<path d="M13.5435 18.286C13.5435 18.286 13.1056 16.5866 12.8899 16.0441C12.6743 15.5082 12.269 14.9003 12.2494 14.8677C10.8703 13.567 8.34746 13.567 8.83765 13.0833C9.38014 12.5474 11.6285 12.9134 12.4455 13.3186C13.1775 13.7043 16.2756 15.5016 16.3801 16.1029C16.4847 16.7696 13.9488 16.7304 13.5435 18.286Z" fill="white"/>
<path d="M13.5431 18.4559C13.4712 18.4493 13.3928 18.384 13.3732 18.3121V18.3056L13.3666 18.2794L13.3536 18.2271L13.3274 18.116C13.1575 17.4624 12.9941 16.7761 12.7719 16.1422C12.615 15.7239 12.3862 15.3317 12.1444 14.9461L12.164 14.9657C11.9287 14.7369 11.6477 14.5539 11.3601 14.3905C10.7653 14.0703 10.1183 13.8676 9.47121 13.6781C9.24899 13.5931 8.70651 13.5016 8.67383 13.2271C8.67383 12.9395 9.11827 12.8154 9.32742 12.7761C10.1902 12.6454 11.0725 12.8023 11.9026 13.031C12.1117 13.0964 12.3209 13.1683 12.517 13.2663C12.5889 13.3056 12.7849 13.4167 12.8568 13.4559C13.4516 13.7957 14.0333 14.1552 14.6085 14.5343C15.1836 14.9134 15.7653 15.2794 16.249 15.7827C16.6412 16.1879 16.4059 16.4493 15.9745 16.6389C15.3601 16.9134 14.6869 17.1029 14.1902 17.5539C14.0137 17.7173 13.8699 17.9069 13.7849 18.1225C13.7523 18.1944 13.7523 18.2271 13.7196 18.3121C13.6869 18.3644 13.6019 18.4363 13.5431 18.4559ZM13.5431 18.1225C13.5039 18.0964 13.432 18.1225 13.4124 18.1552C13.3993 18.1814 13.4124 18.1552 13.4189 18.1487C13.4385 18.0964 13.4647 18.0376 13.4908 17.9853C13.9614 17.0768 15.0398 16.848 15.9026 16.4886C16.2359 16.3382 16.4843 16.2075 16.1379 15.8611C15.6608 15.3774 15.0725 15.0245 14.5039 14.665C13.9222 14.3121 13.3274 13.9788 12.7261 13.6585L12.5039 13.5408C11.9941 13.2663 11.4189 13.1487 10.8503 13.0572C10.3536 12.9918 9.30782 12.8742 8.9418 13.2271C8.9418 13.2271 8.94834 13.214 8.94834 13.1944C8.94834 13.1748 8.9418 13.1683 8.9418 13.1618C8.9418 13.1618 8.96141 13.1814 8.98755 13.1944C9.15749 13.2859 9.35357 13.3382 9.54965 13.3971C10.2098 13.5931 10.883 13.7957 11.4974 14.1291C11.8176 14.3056 12.1313 14.5082 12.3928 14.7761C12.6477 15.1683 12.8895 15.5801 13.066 16.018C13.3013 16.6716 13.4712 17.3513 13.6542 18.018L13.6804 18.1291L13.6934 18.1879L13.7 18.2141V18.2206C13.6869 18.1618 13.6019 18.1095 13.5431 18.1225Z" fill="black"/>
<path d="M7.28109 18.0833C7.28109 18.0833 6.82357 17.5997 6.27455 17.2598C5.05886 16.5082 3.27455 16.1617 3.25494 15.58C3.24187 14.9265 5.4118 13.5604 6.84971 13.0964C9.01311 12.4951 9.29416 13.2075 9.3203 13.5081C9.33337 13.6519 6.9739 14.4101 6.98697 14.5604V14.567C6.98697 14.567 6.68631 14.665 6.902 16.1617C6.95429 16.5343 7.18305 17.1748 7.28109 18.0833Z" fill="white"/>
<path d="M7.35324 18.2336C7.29442 18.2598 7.19638 18.2402 7.15063 18.1879L7.14409 18.1748L7.12448 18.1552C7.10487 18.1291 7.03298 18.0572 7.00684 18.0376C6.84997 17.8807 6.68004 17.7238 6.5101 17.5866C6.03952 17.2075 5.48396 16.9591 4.93494 16.7108C4.5101 16.5278 4.0722 16.3644 3.66697 16.1356C3.03298 15.7827 3.06566 15.4297 3.54278 14.933C4.20945 14.2794 5.00684 13.7761 5.84344 13.3644C6.15716 13.214 6.48396 13.0768 6.81729 12.9722C7.54278 12.7761 9.24213 12.397 9.42514 13.4689C9.42514 13.4885 9.43167 13.5016 9.42514 13.5278C9.4186 13.5539 9.40553 13.567 9.39899 13.58C9.32056 13.6585 9.21599 13.6977 9.12448 13.7369C8.69965 13.9134 8.26174 14.0572 7.82383 14.2075C7.55586 14.3055 7.27481 14.384 7.02644 14.5212C7.01337 14.5343 6.99376 14.5474 7.0003 14.567C6.88265 14.665 6.88919 14.8415 6.86958 14.9787C6.85651 15.4166 6.9284 15.8742 7.02644 16.299C7.14409 16.7238 7.28788 17.1683 7.37285 17.6062C7.39899 17.7434 7.43821 17.8676 7.43167 18.0049C7.4186 18.0899 7.38592 18.1748 7.35324 18.2336ZM7.20945 17.933C7.17677 17.9068 7.11795 17.9134 7.0918 17.9395C7.05912 17.7042 7.01991 17.4689 6.96762 17.2336C6.87612 16.8023 6.73233 16.3513 6.69311 15.9003L6.6735 15.6715C6.65389 15.3382 6.60161 14.7238 6.84997 14.4689C6.86958 14.4559 6.86958 14.4428 6.93494 14.4166L6.81729 14.5735C6.81076 14.5408 6.84344 14.4624 6.85651 14.4493C6.89572 14.397 6.9284 14.384 6.97416 14.3513C7.21599 14.214 7.47742 14.1225 7.73233 14.018C8.01991 13.9068 8.73233 13.6323 9.00684 13.5147C9.06566 13.4885 9.14409 13.4559 9.18984 13.4232C9.17677 13.4428 9.17023 13.4428 9.15716 13.4885C9.15063 13.5016 9.15716 13.5604 9.15063 13.5278C9.05912 12.9265 8.11795 13.031 7.66043 13.0964C6.76501 13.2402 5.93494 13.5931 5.13755 14.0245C4.61468 14.3186 4.08527 14.6323 3.65389 15.0572C3.5101 15.2075 3.34671 15.3774 3.33363 15.58C3.36631 15.8742 3.90226 16.0702 4.15063 16.1944C4.71272 16.4363 5.29442 16.6389 5.84997 16.9003C6.3467 17.1291 6.81076 17.4428 7.22252 17.8023C7.26827 17.8415 7.3467 17.9134 7.38592 17.9526C7.37938 17.9395 7.33363 17.9134 7.29442 17.9068C7.26827 17.9134 7.23559 17.9199 7.20945 17.933Z" fill="black"/>
<path d="M11.9597 16.8023C11.8224 17.4755 10.9335 17.8807 9.43678 17.2729C7.88122 16.6454 7.20802 15.1487 7.03809 14.7042C7.95965 12.9788 7.31913 11.7827 7.31913 11.7827C9.44332 11.5997 11.2995 14.0833 11.2995 14.0833L11.5871 15.3121C11.6132 15.4167 11.6655 15.5082 11.744 15.5735C11.8812 15.8154 12.0446 16.3709 11.9597 16.8023Z" fill="white"/>
<path d="M7.00581 14.7239C7.12999 14.5343 7.20842 14.3121 7.26071 14.0964C7.35875 13.6454 7.39143 13.1879 7.39796 12.7304V12.5605C7.37835 12.3905 7.31953 12.2141 7.25417 12.0572C7.1692 11.848 7.47639 11.7173 7.57443 11.9265C7.5875 11.9526 7.5875 11.9984 7.5875 12.0245C7.60711 12.9134 7.64633 14.0572 7.08424 14.7958C7.04502 14.835 6.96659 14.7761 7.00581 14.7239Z" fill="black"/>
<path d="M11.3717 14.0703C11.4698 14.1291 11.5025 14.2075 11.5155 14.286C11.5547 14.4428 11.5417 14.6128 11.5809 14.7762C11.6136 14.933 11.7116 15.0833 11.7377 15.2467C11.7704 15.4167 11.8685 15.7762 11.9077 15.9526C11.9208 15.9918 11.8946 16.0376 11.8489 16.0441C11.8227 16.0507 11.8031 16.0441 11.7835 16.0311C11.6985 15.9592 11.6593 15.8873 11.607 15.7958C11.5221 15.6389 11.4632 15.4951 11.4109 15.3186C11.3652 15.1618 11.3848 14.9918 11.3456 14.8284C11.3129 14.6716 11.2214 14.5213 11.1887 14.3579C11.1691 14.2794 11.1626 14.1945 11.2214 14.0964C11.2606 14.0572 11.326 14.0441 11.3717 14.0703Z" fill="black"/>
<path d="M11.8425 15.7958C10.5941 15.7304 9.57452 15.3382 8.58105 13.567C9.41766 14.3056 10.4046 14.5866 11.4438 14.7173L11.5811 15.3186C11.6072 15.4232 11.7641 15.7304 11.8425 15.7958Z" fill="black"/>
<path d="M11.7898 15.5539C12.012 15.9722 12.1427 16.4951 12.0054 16.9592C11.9009 17.286 11.6002 17.5278 11.2734 17.6193C10.5152 17.8219 9.63943 17.5016 8.96623 17.1422C8.13616 16.6781 7.52178 15.9003 7.12962 15.0507C7.10348 14.9853 7.19498 14.933 7.2342 14.9984C7.37145 15.2729 7.52832 15.5409 7.70479 15.7827C7.88126 16.0311 8.08387 16.2598 8.31263 16.4624C8.9793 17.0637 9.88126 17.4363 10.7832 17.4363C11.7113 17.4101 12.0643 16.9199 11.8486 16.018C11.8159 15.8742 11.7636 15.7239 11.6917 15.5997C11.6525 15.5474 11.7505 15.4886 11.7898 15.5539Z" fill="black"/>
<path d="M14.3197 7.70425C14.4374 8.25326 14.0452 8.8415 14.0452 10.3056C14.0452 11.8023 13.7707 13.4297 12.64 14.5605C11.6661 15.5343 10.5485 15.4951 9.23476 14.469C9.05176 14.3252 8.41123 13.8415 8.24783 13.6781C8.05829 13.4886 7.95372 13.3513 7.86221 13.2075C7.78378 13.0768 7.80339 12.3186 7.69228 12.1422C7.4047 11.665 7.34587 12.1814 6.97332 11.7631C6.45699 11.201 5.83607 10.0703 6.14326 8.07026C6.63999 4.82843 9.20862 4.44934 11.1106 4.80882C13.0256 5.17483 14.006 6.2598 14.3197 7.70425Z" fill="white"/>
<path d="M7.3003 12.3448C7.14997 12.0964 6.96043 11.8742 6.78396 11.6454C6.60749 11.4036 6.4637 11.1487 6.34605 10.8742C5.67938 9.2598 5.77742 7.14869 6.96043 5.78921C7.77089 4.86111 9.05193 4.55392 10.2284 4.61928C11.4049 4.69117 12.6271 4.99183 13.4964 5.8415C13.9996 6.3317 14.3199 6.98529 14.4637 7.66503C14.5094 7.88072 14.4768 8.11601 14.4245 8.31863C14.2742 8.88725 14.1304 9.42974 14.1173 10.018C14.1238 10.8938 14.0977 11.7892 13.8428 12.6324C13.6598 13.1944 13.4441 13.7565 13.1042 14.2467C12.7513 14.7435 12.2219 15.1422 11.614 15.2598C10.3918 15.5082 9.24801 14.7369 8.43755 13.9003C8.40487 13.8611 8.45062 13.8154 8.48984 13.8415C8.95389 14.1944 9.43102 14.5212 9.94736 14.7435C11.4376 15.4297 12.6728 14.7957 13.3264 13.3578C13.8755 12.3121 14.0323 11.1814 13.9866 10.0114C13.9866 9.71732 13.9996 9.4232 14.0389 9.12908C14.0781 8.70425 14.2219 8.27941 14.2153 7.86111C14.1042 7.18137 13.7905 6.52778 13.3199 6.02451C12.2023 4.8415 10.0585 4.4951 8.5552 5.03104C6.78396 5.65849 6.30683 7.44281 6.20879 9.14869C6.14344 10.1683 6.44409 11.1683 7.21533 11.8676L7.52252 12.1879C7.6271 12.3317 7.40487 12.5016 7.3003 12.3448Z" fill="black"/>
<path d="M8.0718 10.2663C8.0718 10.2663 7.86919 9.28595 6.91494 9.4036C6.09141 9.50817 5.80383 11.482 7.67311 12.0311" fill="white"/>
<path d="M7.58801 11.1748C7.43768 11.0899 7.33311 10.9461 7.32657 10.7696C7.33311 10.6389 7.35271 10.4886 7.32003 10.3578C7.30043 10.2337 7.16971 10.201 7.07167 10.2075C6.96709 10.2271 6.90173 10.3578 6.88213 10.4624C6.88213 10.469 6.87559 10.4886 6.87559 10.4951C6.86905 10.5278 6.81677 10.5278 6.80369 10.4951C6.71873 10.2402 6.90827 9.95915 7.18278 9.99183C7.5684 10.018 7.62069 10.4232 7.54879 10.7304C7.50958 10.8611 7.56186 10.9788 7.63376 11.0899L7.64683 11.1095C7.67951 11.1487 7.62722 11.201 7.58801 11.1748Z" fill="black"/>
<path d="M12.8162 9.57352C12.9143 10.0376 13.0973 10.4689 13.326 10.8742C13.5286 11.3709 13.0058 11.8415 12.5417 11.8219C12.4894 11.8219 12.4829 11.75 12.5286 11.7369C12.8228 11.6454 13.0907 11.4493 13.1365 11.1487C13.1561 11.0572 13.1299 10.9787 13.0842 10.9003C12.8685 10.4951 12.7378 10.031 12.7705 9.57352C12.7705 9.54084 12.8162 9.54084 12.8162 9.57352Z" fill="black"/>
<path d="M8.03905 10.2729C7.88872 9.88725 7.56192 9.52124 7.12401 9.52778C7.0848 9.52124 7.01944 9.53431 6.98022 9.53431C6.86911 9.54085 6.77761 9.58006 6.69264 9.6585C6.27434 10.0768 6.34624 10.8154 6.6861 11.2794C6.80375 11.4428 6.95408 11.5866 7.12401 11.7042C7.29395 11.8219 7.48349 11.9134 7.6861 11.9918C7.73186 12.0049 7.71225 12.0768 7.6665 12.0703C7.22859 11.9788 6.81029 11.7631 6.52271 11.4036C6.07826 10.8676 5.98676 9.97222 6.51617 9.44934C6.63382 9.34477 6.79722 9.26634 6.96061 9.26634C7.0129 9.26634 7.09133 9.25327 7.14362 9.26634C7.41813 9.27941 7.67957 9.41666 7.8495 9.63235C7.99983 9.81536 8.0848 10.0376 8.11094 10.2598C8.11094 10.299 8.05212 10.3121 8.03905 10.2729Z" fill="black"/>
<path d="M12.3467 12.6127C11.9219 12.5082 11.484 12.5997 11.0526 12.6258C11.0068 12.6258 10.9938 12.567 11.033 12.5474C11.3859 12.3382 12.0068 12.1748 12.3467 12.469C12.3729 12.5016 12.4513 12.5735 12.3925 12.6127C12.3794 12.6193 12.3598 12.6193 12.3467 12.6127Z" fill="black"/>
<path d="M10.3796 10.2402C10.2228 10.2337 10.1051 10.103 10.1182 9.94609L10.1247 9.76309C10.1313 9.60622 10.262 9.48858 10.4188 9.50165C10.5757 9.50818 10.6933 9.6389 10.6803 9.79577L10.6737 9.97877C10.6672 10.1291 10.5365 10.2467 10.3796 10.2402Z" fill="black"/>
<path d="M13.1305 10.3383C12.9867 10.3317 12.8756 10.2075 12.8821 10.0637L12.8886 9.89381C12.8952 9.75002 13.0194 9.63891 13.1632 9.64545C13.3069 9.65198 13.4181 9.77617 13.4115 9.91996L13.405 10.0899C13.3984 10.2337 13.2743 10.3448 13.1305 10.3383Z" fill="black"/>
<path d="M10.9678 9.88726C10.7521 9.74347 10.5168 9.64543 10.2554 9.69772C10.1704 9.71079 10.0854 9.73694 10.0331 9.79576C10.0135 9.8219 9.96777 9.81537 9.96777 9.77615C9.97431 9.64543 10.0854 9.56047 10.19 9.50818C10.3926 9.4036 10.6737 9.42321 10.8567 9.56047C10.922 9.59968 11.1442 9.84151 11.0266 9.8938C11.0005 9.90687 10.9874 9.90034 10.9678 9.88726Z" fill="black"/>
<path d="M12.8369 9.91994C12.8369 9.64543 13.1768 9.54739 13.3859 9.64543C13.5036 9.69772 13.5885 9.80229 13.6212 9.92647C13.6343 9.96569 13.5755 9.99837 13.5493 9.96569C13.4382 9.83497 13.2487 9.76961 13.0984 9.84804C13.0526 9.87419 13.0461 9.8938 13.033 9.91994C13.033 10.0507 12.8435 10.0441 12.8369 9.91994Z" fill="black"/>
<path d="M11.2813 8.80883C11.4185 8.85458 11.5558 8.7304 11.5296 8.58007C11.5166 8.50164 11.4839 8.42321 11.4185 8.36439C11.2224 8.18792 10.412 8.03105 9.92179 8.25981C9.49041 8.46896 10.6538 8.59968 11.2813 8.80883Z" fill="black"/>
<path d="M13.2357 8.91341C13.1246 8.95263 13.007 8.83498 13.0266 8.69772C13.0331 8.62583 13.0593 8.55393 13.1115 8.50165C13.2684 8.34478 13.8043 8.2206 14.1442 8.46243C14.4383 8.66504 13.7455 8.72387 13.2357 8.91341Z" fill="black"/>
<path d="M14.616 5.57308C14.7337 5.29857 14.7337 4.99792 14.5376 4.73648C13.969 3.98485 12.2108 4.55347 11.2304 4.23975C9.75981 3.76262 7.93628 3.7038 6.86438 5.46851C6.59641 5.91295 6.46569 6.03713 6.08661 6.39008C5.69445 6.75609 5.38726 7.42929 5.36112 8.35086C5.30229 10.2005 6.75327 11.8084 6.75327 11.8084C6.82517 11.9064 6.89053 11.9914 6.94935 12.0633C7.47223 12.6907 7.63563 13.8999 7.47876 11.9914C5.85131 11.3639 6.14543 9.5404 6.93628 9.44236C7.77288 9.33779 8.03432 10.0829 8.08007 10.2659C8.64216 9.90642 8.43955 9.14171 8.37419 8.42929C8.8121 8.23321 9.18465 7.76262 9.38072 7.33779C9.59641 7.63844 9.85785 7.87374 10.1716 7.89988C10.5049 7.93256 10.701 7.65151 10.7663 7.25282C11.1977 7.82145 11.9624 8.52733 13.165 8.66459C13.7402 8.72995 14.2173 8.48812 14.5376 8.08942C14.6226 8.10249 14.701 8.10903 14.7794 8.10249C15.6226 8.01753 16.5637 6.31164 14.616 5.57308Z" fill="black"/>
<path d="M11.4384 11.0507C11.1377 11.0572 10.2096 11.0637 9.92206 11.0703C9.42533 11.0768 9.05278 10.6454 9.09853 10.1552C9.10507 9.99184 9.09853 9.76308 9.10507 9.59968C9.11814 9.17485 9.49722 8.81537 9.92206 8.82844L11.0266 8.84151C11.1116 8.84151 11.3534 8.84805 11.4384 8.84805C11.7913 8.84151 12.1247 9.10295 12.2031 9.44936C12.2292 9.54739 12.2227 9.65197 12.2227 9.73694V10.2925C12.2162 10.7043 11.8502 11.0572 11.4384 11.0507ZM11.4384 10.9069C11.7783 10.9199 12.092 10.6258 12.0985 10.286C12.1051 10.1095 12.0985 9.91994 12.0985 9.73694C12.1377 9.33824 11.8371 8.97223 11.4319 8.9853C11.1508 8.99184 10.2096 8.99838 9.91552 9.00491C9.56258 9.00491 9.26193 9.32517 9.28807 9.67811C9.28807 9.72387 9.28807 9.84151 9.28807 9.88726C9.29461 10.0311 9.275 10.2794 9.30768 10.4101C9.37304 10.6846 9.63448 10.8938 9.91552 10.8938H10.0528C10.2423 10.8938 11.2423 10.9069 11.4384 10.9069Z" fill="black"/>
<path d="M14.0718 9.01798L13.5555 9.02452C13.4117 9.03105 13.2418 9.00491 13.1176 9.08988C12.9999 9.16831 12.9477 9.3121 12.9542 9.44936C12.9542 9.61929 12.9542 9.79576 12.9477 9.96569L12.9411 9.93955C13.0326 10.2598 13.1568 10.567 13.3463 10.835L13.281 10.7958C13.3333 10.8088 13.4248 10.8088 13.4771 10.8088C13.6731 10.8154 13.9019 10.8284 14.098 10.8284C14.281 10.8284 14.4575 10.6912 14.4967 10.5082C14.5097 10.4559 14.5097 10.3644 14.5097 10.3121C14.5097 10.0311 14.5163 9.75654 14.5032 9.4755C14.5163 9.22713 14.3267 9.00491 14.0718 9.01798ZM14.0718 8.8219C14.4182 8.8219 14.6601 9.15524 14.6013 9.48203C14.5882 9.76308 14.5947 10.0376 14.5947 10.3186C14.6274 10.6454 14.4313 10.9396 14.0914 10.9657C13.9477 10.9722 13.8104 10.9722 13.6731 10.9788C13.6013 10.9788 13.4248 10.9918 13.3594 10.9918C13.3267 10.9984 13.2745 10.9918 13.2418 10.9918C13.2156 10.9918 13.1895 10.9722 13.1764 10.9526C12.9738 10.652 12.83 10.3186 12.745 9.97223C12.745 9.75001 12.7254 9.52779 12.745 9.30556C12.7843 9.04413 13.0196 8.8219 13.2875 8.81537C13.4705 8.80883 13.8888 8.8219 14.0718 8.8219Z" fill="black"/>
<path d="M12.151 9.42321C12.3275 9.34478 12.5236 9.3121 12.7196 9.32517C12.785 9.33171 12.8503 9.35132 12.9092 9.4036L12.9941 9.4755C13.0791 9.5474 12.9745 9.67158 12.8896 9.59968C12.785 9.50818 12.6608 9.52125 12.5366 9.52779C12.4124 9.54086 12.2948 9.567 12.1771 9.61276C12.066 9.65851 11.9941 9.49511 12.0987 9.44282L12.151 9.42321Z" fill="black"/>
<path d="M9.20951 9.65851C9.16375 9.76309 9.11147 9.77616 9.0265 9.76962L8.83696 9.77616C8.45787 9.77616 8.07225 9.76962 7.69317 9.7108C7.56245 9.70426 7.55591 9.52126 7.68663 9.51472L9.20297 9.46243C9.24872 9.46243 9.2814 9.50818 9.26179 9.5474L9.20951 9.65851Z" fill="black"/>
<path d="M18.8371 6.25981C22.8044 13.9003 15.8305 22.5212 7.51679 20.4167C3.78476 19.4886 0.784763 16.2533 0.163848 12.4559C-0.542034 8.67811 1.16385 4.61929 4.35339 2.48203C8.72594 -0.524502 14.7848 0.475497 17.9155 4.77615C17.9351 4.79576 17.9286 4.82844 17.9024 4.84805C17.8828 4.86765 17.8501 4.86112 17.8305 4.83497C17.3991 4.27942 16.9089 3.77615 16.373 3.32517C15.4906 2.57354 14.458 1.9853 13.3665 1.58661C7.81091 -0.426463 1.71287 2.91994 0.497181 8.7304C-0.875368 15.2402 4.66058 21.2337 11.2619 20.3382C16.3534 19.6977 20.1377 14.9984 19.7194 9.88726C19.6279 8.65197 19.3011 7.42975 18.7586 6.30556C18.7455 6.28596 18.7586 6.25981 18.7782 6.24674C18.7978 6.23367 18.824 6.2402 18.8371 6.25981Z" fill="black"/>
</g>
</svg>
