<svg width="14" height="15" viewBox="0 0 14 15" fill="none" xmlns="http://www.w3.org/2000/svg">
<path fill-rule="evenodd" clip-rule="evenodd" d="M6.2999 2.9594C4.17361 2.9594 2.4499 4.6831 2.4499 6.8094C2.4499 8.9357 4.17361 10.6594 6.2999 10.6594C7.3632 10.6594 8.32498 10.2291 9.02226 9.53176C9.71955 8.83447 10.1499 7.87269 10.1499 6.8094C10.1499 4.6831 8.4262 2.9594 6.2999 2.9594ZM1.3999 6.8094C1.3999 4.10321 3.59371 1.9094 6.2999 1.9094C9.0061 1.9094 11.1999 4.10321 11.1999 6.8094C11.1999 7.97317 10.7937 9.04279 10.1161 9.88315L12.4461 12.2132C12.6512 12.4182 12.6512 12.7506 12.4461 12.9556C12.2411 13.1607 11.9087 13.1607 11.7037 12.9556L9.37365 10.6256C8.5333 11.3032 7.46367 11.7094 6.2999 11.7094C3.59371 11.7094 1.3999 9.5156 1.3999 6.8094Z" fill="#F9FAFB"/>
</svg>
